<svg xmlns="http://www.w3.org/2000/svg" xmlns:xlink="http://www.w3.org/1999/xlink" width="280" zoomAndPan="magnify" viewBox="0 0 210 209.999996" height="280" preserveAspectRatio="xMidYMid meet" version="1.2"><defs><clipPath id="92e40115bb"><path d="M 5.90625 5.90625 L 203.90625 5.90625 L 203.90625 203.90625 L 5.90625 203.90625 Z M 5.90625 5.90625 "/></clipPath></defs><g id="79d74f4084"><g clip-rule="nonzero" clip-path="url(#92e40115bb)"><path style=" stroke:none;fill-rule:evenodd;fill:#42a6f5;fill-opacity:1;" d="M 104.910156 5.898438 C 159.589844 5.898438 203.914062 50.222656 203.914062 104.902344 C 203.914062 159.582031 159.589844 203.90625 104.910156 203.90625 C 50.230469 203.90625 5.90625 159.582031 5.90625 104.902344 C 5.90625 50.222656 50.230469 5.898438 104.910156 5.898438 "/></g><path style=" stroke:none;fill-rule:evenodd;fill:#ffffff;fill-opacity:1;" d="M 50.769531 51.644531 L 147.5 51.644531 L 147.5 63.8125 L 50.769531 63.8125 Z M 50.765625 79.671875 L 98.847656 79.671875 L 98.847656 91.835938 L 50.765625 91.835938 Z M 50.765625 107.695312 L 100.054688 107.695312 L 106.609375 119.859375 L 50.765625 119.859375 Z M 50.765625 135.71875 L 115.042969 135.71875 L 121.042969 146.871094 L 121.433594 147.882812 L 50.765625 147.882812 Z M 131.679688 78.894531 L 147.5 78.894531 L 147.5 91.058594 L 131.679688 91.058594 Z M 136.03125 154.117188 L 133.785156 150.496094 L 155.535156 137.042969 L 157.777344 140.667969 C 160.253906 144.671875 159.015625 149.925781 155.011719 152.402344 L 147.761719 156.882812 C 143.757812 159.359375 138.507812 158.121094 136.03125 154.117188 Z M 110.515625 104.757812 C 109.898438 103.757812 108.585938 103.445312 107.582031 104.066406 C 106.578125 104.683594 106.269531 105.996094 106.890625 106.996094 L 131.546875 146.871094 L 135.171875 144.625 Z M 128.636719 93.546875 C 128.019531 92.546875 126.707031 92.234375 125.703125 92.855469 C 124.703125 93.472656 124.394531 94.785156 125.015625 95.785156 L 149.667969 135.660156 L 153.292969 133.417969 Z M 146.046875 137.898438 L 121.386719 98.03125 C 120.15625 96.027344 117.523438 95.414062 115.523438 96.644531 C 113.523438 97.882812 112.894531 100.507812 114.144531 102.515625 L 138.796875 142.382812 Z M 105.351562 100.4375 C 106.578125 99.675781 107.953125 99.496094 109.289062 99.625 C 109.324219 99.1875 109.363281 98.746094 109.464844 98.3125 C 109.988281 96.097656 111.34375 94.21875 113.28125 93.023438 C 115.222656 91.824219 117.507812 91.453125 119.722656 91.972656 C 120.125 92.070312 120.503906 92.222656 120.882812 92.371094 C 121.382812 91.074219 122.261719 89.972656 123.464844 89.230469 C 123.578125 89.160156 123.710938 89.15625 123.832031 89.097656 L 104.765625 79.257812 L 105.058594 100.65625 C 105.164062 100.585938 105.246094 100.5 105.351562 100.4375 "/></g></svg>